{"accessors" : [{"bufferView" : 0, "byteOffset" : 0, "componentType" : 5123, "count" : 18, "type" : "SCALAR", "max" : [17], "min" : [0]}, {"bufferView" : 1, "byteOffset" : 0, "componentType" : 5126, "count" : 18, "type" : "VEC3", "max" : [1.690000057220459, 0.33799970149993896, 1.689998984336853], "min" : [-1.690000057220459, -0.33799970149993896, -1.689998984336853], "name" : "POSITION"}, {"bufferView" : 1, "byteOffset" : 12, "componentType" : 5126, "count" : 18, "type" : "VEC3", "max" : [0.8944314122200012, 0.95804762840271, 0.266125351190567], "min" : [-0.2661241292953491, -0.9580480456352234, -0.894430935382843], "name" : "NORMAL"}, {"bufferView" : 1, "byteOffset" : 24, "componentType" : 5126, "count" : 18, "type" : "VEC2", "max" : [0.22092629969120026, 1.2052909135818481], "min" : [-0.16924789547920227, 0.8256446719169617], "name" : "TEXCOORD_0"}], "asset" : {"generator" : "Aspose.3D 23.2", "version" : "2.0"}, "buffers" : [{"uri" : "data:application/octet-stream;base64,", "byteLength" : 620}], "bufferViews" : [{"buffer" : 0, "byteOffset" : 0, "byteLength" : 36, "target" : 34963}, {"buffer" : 0, "byteOffset" : 40, "byteLength" : 576, "byteStride" : 32, "target" : 34962}], "materials" : [{"name" : "mat5", "pbrMetallicRoughness" : {"baseColorFactor" : [0.01, 0.61, 0.9, 1], "metallicFactor" : 0, "roughnessFactor" : 1}, "emissiveFactor" : [0, 0, 0], "alphaMode" : "OPAQUE", "doubleSided" : false}], "meshes" : [{"primitives" : [{"attributes" : {"POSITION" : 1, "NORMAL" : 2, "TEXCOORD_0" : 3}, "indices" : 0, "material" : 0, "mode" : 4}]}], "nodes" : [{"mesh" : 0, "name" : "group905816428"}], "scene" : 0, "scenes" : [{"nodes" : [0]}]}